<?xml version="1.0" encoding="UTF-8" standalone="no"?>
<!DOCTYPE svg PUBLIC "-//W3C//DTD SVG 1.1//EN" "http://www.w3.org/Graphics/SVG/1.1/DTD/svg11.dtd">
<svg width="100%" height="100%" viewBox="0 0 3038 764" version="1.1" xmlns="http://www.w3.org/2000/svg" xmlns:xlink="http://www.w3.org/1999/xlink" xml:space="preserve" xmlns:serif="http://www.serif.com/" style="fill-rule:evenodd;clip-rule:evenodd;stroke-linejoin:round;stroke-miterlimit:2;">
    <rect id="Artboard1" x="0" y="0" width="3037.5" height="763.061" style="fill:none;"/>
    <clipPath id="_clip1">
        <rect id="Artboard11" serif:id="Artboard1" x="0" y="0" width="3037.5" height="763.061"/>
    </clipPath>
    <g clip-path="url(#_clip1)">
        <g transform="matrix(4.16667,0,0,4.16667,0,0)">
            <path d="M0,129.821L34.684,129.821L34.684,140.35L12.015,140.35L12.015,147.721L32.516,147.721L32.516,157.692L12.015,157.692L12.015,173.176L0,173.176L0,129.821Z" style="fill:rgb(37,39,41);fill-rule:nonzero;"/>
            <path d="M72.995,151.622L72.995,151.498C72.995,145.243 68.474,139.793 61.846,139.793C55.281,139.793 50.884,145.119 50.884,151.375L50.884,151.498C50.884,157.754 55.405,163.204 61.97,163.204C68.597,163.204 72.995,157.878 72.995,151.622ZM38.559,151.622L38.559,151.498C38.559,139.05 48.592,128.954 61.97,128.954C75.348,128.954 85.258,138.926 85.258,151.375L85.258,151.498C85.258,163.947 75.225,174.043 61.846,174.043C48.468,174.043 38.559,164.071 38.559,151.622Z" style="fill:rgb(37,39,41);fill-rule:nonzero;"/>
            <path d="M91.022,129.821L102.233,129.821L120.071,152.737L120.071,129.821L131.962,129.821L131.962,173.176L121.434,173.176L102.915,149.393L102.915,173.176L91.022,173.176L91.022,129.821Z" style="fill:rgb(37,39,41);fill-rule:nonzero;"/>
            <path d="M150.313,140.35L137.306,140.35L137.306,129.821L175.334,129.821L175.334,140.35L162.328,140.35L162.328,173.176L150.313,173.176L150.313,140.35Z" style="fill:rgb(37,39,41);fill-rule:nonzero;"/>
            <path d="M200.979,156.082L196.148,143.757L191.255,156.082L200.979,156.082ZM190.45,129.512L202.032,129.512L220.489,173.176L207.606,173.176L204.447,165.434L187.725,165.434L184.628,173.176L171.993,173.176L190.45,129.512Z" style="fill:rgb(37,39,41);fill-rule:nonzero;"/>
            <rect x="225.461" y="129.821" width="12.077" height="43.355" style="fill:rgb(37,39,41);fill-rule:nonzero;"/>
            <path d="M246.769,129.821L257.979,129.821L275.816,152.737L275.816,129.821L287.708,129.821L287.708,173.176L277.179,173.176L258.66,149.393L258.66,173.176L246.769,173.176L246.769,129.821Z" style="fill:rgb(37,39,41);fill-rule:nonzero;"/>
            <path d="M296.978,129.821L331.848,129.821L331.848,140.04L308.87,140.04L308.87,146.605L329.68,146.605L329.68,156.082L308.87,156.082L308.87,162.956L332.158,162.956L332.158,173.176L296.978,173.176L296.978,129.821Z" style="fill:rgb(37,39,41);fill-rule:nonzero;"/>
            <path d="M378.925,163.514C382.579,163.514 384.685,162.089 384.685,159.55L384.685,159.426C384.685,157.072 382.826,155.524 378.801,155.524L369.634,155.524L369.634,163.514L378.925,163.514ZM377.19,147.101C380.845,147.101 382.889,145.862 382.889,143.323L382.889,143.199C382.889,140.846 381.03,139.482 377.438,139.482L369.634,139.482L369.634,147.101L377.19,147.101ZM357.928,129.821L380.163,129.821C385.613,129.821 389.453,131.184 391.993,133.723C393.728,135.457 394.78,137.749 394.78,140.722L394.78,140.846C394.78,145.862 391.931,148.835 388.091,150.508C393.355,152.241 396.7,155.215 396.7,161.099L396.7,161.223C396.7,168.654 390.63,173.176 380.287,173.176L357.928,173.176L357.928,129.821Z" style="fill:rgb(37,39,41);fill-rule:nonzero;"/>
            <path d="M423.678,150.631C427.766,150.631 430.119,148.649 430.119,145.49L430.119,145.367C430.119,141.96 427.642,140.227 423.616,140.227L415.75,140.227L415.75,150.631L423.678,150.631ZM403.734,129.821L424.235,129.821C430.862,129.821 435.445,131.555 438.356,134.528C440.896,137.006 442.196,140.35 442.196,144.624L442.196,144.747C442.196,151.375 438.666,155.771 433.277,158.063L443.621,173.176L429.747,173.176L421.015,160.046L415.75,160.046L415.75,173.176L403.734,173.176L403.734,129.821Z" style="fill:rgb(37,39,41);fill-rule:nonzero;"/>
            <path d="M481.462,151.622L481.462,151.498C481.462,145.243 476.94,139.793 470.313,139.793C463.748,139.793 459.351,145.119 459.351,151.375L459.351,151.498C459.351,157.754 463.872,163.204 470.437,163.204C477.064,163.204 481.462,157.878 481.462,151.622ZM447.025,151.622L447.025,151.498C447.025,139.05 457.059,128.954 470.437,128.954C483.815,128.954 493.725,138.926 493.725,151.375L493.725,151.498C493.725,163.947 483.691,174.043 470.313,174.043C456.936,174.043 447.025,164.071 447.025,151.622Z" style="fill:rgb(37,39,41);fill-rule:nonzero;"/>
            <path d="M496.957,166.734L503.646,158.745C507.919,162.151 512.688,163.947 517.705,163.947C520.926,163.947 522.659,162.833 522.659,160.975L522.659,160.851C522.659,159.055 521.235,158.063 515.352,156.701C506.123,154.595 499.001,151.994 499.001,143.075L499.001,142.951C499.001,134.899 505.38,129.079 515.784,129.079C523.155,129.079 528.915,131.06 533.623,134.838L527.615,143.323C523.651,140.536 519.315,139.05 515.476,139.05C512.564,139.05 511.14,140.288 511.14,141.837L511.14,141.96C511.14,143.942 512.627,144.81 518.633,146.172C528.605,148.34 534.8,151.561 534.8,159.674L534.8,159.798C534.8,168.654 527.801,173.919 517.271,173.919C509.592,173.919 502.283,171.504 496.957,166.734Z" style="fill:rgb(37,39,41);fill-rule:nonzero;"/>
            <rect x="541.523" y="161.099" width="12.264" height="12.077" style="fill:rgb(37,39,41);fill-rule:nonzero;"/>
            <path d="M559.846,178.874C563.996,178.378 566.163,176.396 566.04,173.052L561.271,173.052L561.271,160.975L573.534,160.975L573.534,170.822C573.534,179.988 568.517,183.147 560.775,183.395L559.846,178.874Z" style="fill:rgb(37,39,41);fill-rule:nonzero;"/>
            <rect x="599.921" y="129.821" width="12.077" height="43.355" style="fill:rgb(37,39,41);fill-rule:nonzero;"/>
            <path d="M621.229,129.821L632.439,129.821L650.276,152.737L650.276,129.821L662.168,129.821L662.168,173.176L651.639,173.176L633.12,149.393L633.12,173.176L621.229,173.176L621.229,129.821Z" style="fill:rgb(37,39,41);fill-rule:nonzero;"/>
            <path d="M668.49,151.622L668.49,151.498C668.49,138.863 678.214,128.954 691.345,128.954C700.201,128.954 705.899,132.67 709.739,137.996L700.696,144.995C698.22,141.898 695.37,139.916 691.221,139.916C685.151,139.916 680.877,145.057 680.877,151.375L680.877,151.498C680.877,158.002 685.151,163.08 691.221,163.08C695.742,163.08 698.405,160.975 701.007,157.815L710.049,164.257C705.961,169.894 700.449,174.043 690.849,174.043C678.462,174.043 668.49,164.566 668.49,151.622Z" style="fill:rgb(37,39,41);fill-rule:nonzero;"/>
            <rect x="716.241" y="161.099" width="12.264" height="12.077" style="fill:rgb(37,39,41);fill-rule:nonzero;"/>
            <rect x="351.89" y="0.519" width="81.645" height="28.458" style="fill:rgb(140,1,52);fill-rule:nonzero;"/>
            <rect x="351.89" y="37.41" width="64.118" height="28.455" style="fill:rgb(140,1,52);fill-rule:nonzero;"/>
            <rect x="351.89" y="74.304" width="28.46" height="28.457" style="fill:rgb(140,1,52);fill-rule:nonzero;"/>
            <path d="M351.883,28.977L295.031,61.905L295.031,46.527L351.883,0.519L351.883,28.977Z" style="fill:rgb(188,141,21);fill-rule:nonzero;"/>
            <path d="M351.883,65.865L295.031,82.054L295.031,66.807L351.883,37.41L351.883,65.865Z" style="fill:rgb(188,141,21);fill-rule:nonzero;"/>
            <path d="M351.883,102.761L295.031,102.761L295.031,86.961L351.883,74.309L351.883,102.761Z" style="fill:rgb(188,141,21);fill-rule:nonzero;"/>
        </g>
    </g>
</svg>
